<svg
   viewBox="0 0 36 36"
   version="1.1"
   xmlns="http://www.w3.org/2000/svg"
   xmlns:svg="http://www.w3.org/2000/svg">
  <defs
     id="defs1" />
  <path
     id="rect2"
     style="fill:#144391;fill-opacity:1;stroke-width:1.02113"
     d="M 4,5 C 2.984001,5 2.0595149,5.381861 1.3535156,6.0058594 0.52451645,6.7388586 0,7.8070012 0,9 v 17.5 c 0,1.479999 0.53681335,2.682657 1.3828125,3.472656 l -0.029297,0.02148 C 2.0595149,30.618141 2.984001,31 4,31 h 28 c 2.208998,0 4,-1.791001 4,-4 V 18 9 C 36,6.7910012 34.208998,5 32,5 Z" />
  <path
     id="rect838"
     style="display:inline;fill:#755299;fill-opacity:1;stroke-width:16.2624;stroke-linecap:round;stroke-linejoin:round"
     d="M 4,5 C 2.984001,5 2.0595149,5.381861 1.3535156,6.0058594 0.52451645,6.7388586 0,7.8070012 0,9 V 20.421875 H 36 V 18 12.716797 9 C 36,6.7910012 34.208998,5 32,5 Z" />
  <path
     id="rect832"
     style="display:inline;fill:#d50071;fill-opacity:1;stroke-width:13.4668;stroke-linecap:round;stroke-linejoin:round"
     d="M 4,5 C 2.984,5 2.0595156,5.3818594 1.3535156,6.0058594 0.52451562,6.7388594 0,7.807 0,9 v 6.574219 H 36 V 9 C 36,6.7909995 34.209,5 32,5 Z" />
</svg>
