<svg
   xmlns="http://www.w3.org/2000/svg"
   viewBox="0 0 36 36"
   version="1.1">
  <path
     id="rect832-5"
     style="fill:#4c8331;fill-opacity:1;stroke-width:21.3748;stroke-linecap:round;stroke-linejoin:round"
     d="M 0 22.332031 L 0 26.5 C 0 27.98 0.5368125 29.182656 1.3828125 29.972656 L 1.3535156 29.994141 C 2.0544083 30.613627 2.9711867 30.992569 3.9785156 30.998047 L 32.019531 30.998047 C 34.219312 30.987253 36 29.202316 36 27 L 36 22.332031 L 0 22.332031 z " />
  <path
     id="rect832-3"
     style="fill:#ffffff;fill-opacity:1;stroke-width:21.3748;stroke-linecap:round;stroke-linejoin:round"
     d="M 0 13.666016 L 0 22.332031 L 36 22.332031 L 36 18 L 36 13.666016 L 0 13.666016 z " />
  <path
     id="rect832"
     style="fill:#a37eb6;fill-opacity:1;stroke-width:21.3748;stroke-linecap:round;stroke-linejoin:round"
     d="M 4 5 C 2.984 5 2.0595156 5.3818604 1.3535156 6.0058594 C 0.52451563 6.7388604 0 7.807 0 9 L 0 13.666016 L 36 13.666016 L 36 9 C 36 6.790999 34.209 5 32 5 L 4 5 z " />
</svg>
