<svg
   xmlns="http://www.w3.org/2000/svg"
   viewBox="0 0 36 36"
   version="1.1">
  <path
     id="rect841"
     style="fill:#76b82a;stroke-width:22.5963;stroke-linecap:round;stroke-linejoin:round;fill-opacity:1"
     d="m 4.0000015,5.0000035 c -1.016,0 -1.940485,0.38186 -2.646485,1.00586 -0.829,0.733 -1.353515,1.8011405 -1.353515,2.9941405 v 17.5 c 0,1.48 0.536812,2.682656 1.382812,3.472656 l -0.0293,0.02148 C 2.0595135,30.618141 2.9839985,31 3.9999985,31 H 31.999999 c 2.209,0 4,-1.790999 4,-4 V 18 9 c 0,-2.2090005 -1.791,-4.0000005 -4,-4.0000005 z" />
  <g
     id="Ebene_2"
     transform="matrix(0.08033278,0,0,0.08033278,1.1618879,6.115287)">
<path
   d="m 260.855,47.407 -15.268,15.268 25.363,-0.007 -29.13,29.13 c -8.913,-6.173 -19.715,-9.803 -31.354,-9.803 -11.892,0 -22.908,3.792 -31.93,10.212 l -4.973,-4.973 12.835,-12.835 -10.606,-10.606 -12.835,12.835 -14.699,-14.699 25.364,0.007 -15.268,-15.268 h -35.963 v 35.963 l 15.268,15.268 -0.007,-25.364 14.699,14.699 -12.129,12.129 10.606,10.606 12.129,-12.129 4.633,4.633 c -7.705,9.494 -12.334,21.58 -12.334,34.731 0,27.898 20.804,51.014 47.71,54.686 v 19.231 h -17.669 v 15 h 17.669 v 23.098 h 15 v -23.098 h 17.635 v -15 H 217.966 V 191.89 c 26.906,-3.672 47.71,-26.788 47.71,-54.686 0,-13.402 -4.804,-25.701 -12.775,-35.274 L 281.557,73.274 281.55,98.637 296.818,83.369 V 47.407 Z m -50.388,130.007 c -22.172,0 -40.21,-18.038 -40.21,-40.209 0,-22.172 18.038,-40.21 40.21,-40.21 22.171,0 40.209,18.038 40.209,40.21 0.001,22.171 -18.037,40.209 -40.209,40.209 z"
   id="path833" />

</g>
</svg>
