<?xml version="1.0" encoding="UTF-8" standalone="no"?>
<svg
   viewBox="0 0 36 36"
   version="1.1"
   xmlns="http://www.w3.org/2000/svg"
   xmlns:svg="http://www.w3.org/2000/svg">
  <defs
     id="defs1" />
  <path
     id="rect4"
     style="fill:#4aaae0;fill-opacity:1"
     d="M 4,5 C 2.984,5 2.0595149,5.38186 1.3535156,6.0058594 0.52451645,6.7388586 0,7.8070012 0,9 v 17.5 c 0,1.479999 0.53681335,2.682657 1.3828125,3.472656 l -0.029297,0.02148 c 0.6963966,0.615513 1.6057679,0.993685 2.6054688,1.003906 H 32.037109 C 34.228789,30.977854 36,29.196448 36,27 V 18 9 C 36,6.7910017 34.208998,5 32,5 Z" />
  <path
     id="rect830-6"
     style="fill:#fed905;fill-opacity:1;stroke-width:4.46529;stroke-linecap:round;stroke-linejoin:round"
     d="M 4,5 C 2.984,5 2.0595149,5.38186 1.3535156,6.0058594 0.52451645,6.7388586 0,7.8070012 0,9 V 22.332031 H 36 V 18 13.667969 9 C 36,6.7910017 34.208998,5 32,5 Z" />
  <path
     id="rect830"
     style="fill:#e5318a;fill-opacity:1;stroke-width:3.15744;stroke-linecap:round;stroke-linejoin:round"
     d="M 4,5 C 2.984,5 2.0595156,5.3818594 1.3535156,6.0058594 0.52451563,6.7388594 0,7.807 0,9 v 4.666016 H 36 V 9 C 36,6.790999 34.209,5 32,5 Z" />
</svg>
