<svg
   viewBox="0 0 36 36"
   version="1.1"
   xmlns="http://www.w3.org/2000/svg"
   xmlns:svg="http://www.w3.org/2000/svg">
  <defs
     id="defs1" />
  <path
     id="rect4"
     style="fill:#000000;fill-opacity:1"
     d="M 4,5 C 2.984001,5 2.0595149,5.38186 1.3535156,6.0058594 0.52451645,6.7388586 0,7.8070022 0,9 v 17.5 c 0,1.479998 0.53681335,2.682657 1.3828125,3.472656 l -0.029297,0.02148 C 2.0595149,30.61814 2.984001,31 4,31 h 28 c 2.208998,0 4,-1.791001 4,-4 V 18 9 C 36,6.7910022 34.208998,5 32,5 Z" />
  <path
     id="rect830-6"
     style="fill:#e52322;fill-opacity:1;stroke-width:4.46529;stroke-linecap:round;stroke-linejoin:round"
     d="M 4,5 C 2.984001,5 2.0595149,5.38186 1.3535156,6.0058594 0.52451645,6.7388586 0,7.8070022 0,9 V 22.332031 H 36 V 18 13.667969 9 C 36,6.7910022 34.208998,5 32,5 Z" />
  <path
     id="rect830"
     style="fill:#204d9b;fill-opacity:1;stroke-width:3.15744;stroke-linecap:round;stroke-linejoin:round"
     d="M 4,5 C 2.9840004,5 2.0595156,5.3818594 1.3535156,6.0058594 0.52451562,6.7388584 0,7.807 0,9 v 4.666016 H 36 V 9 C 36,6.790999 34.209,5 32,5 Z" />
  <path
     d="m 19.906214,13.999 c 0.118704,0 0.245088,0.0064 0.380261,0.01963 0.822649,0.0803 1.7739,0.833487 1.889958,2.276791 v 0.480362 c -0.107866,1.381434 -1.150854,3.085358 -4.198749,5.223219 -3.047896,-2.137861 -4.090713,-3.84187 -4.198579,-5.223219 v -0.480362 c 0.115802,-1.443304 1.067053,-2.196489 1.889702,-2.276791 0.135173,-0.01323 0.261643,-0.01963 0.380347,-0.01963 0.950568,0 1.406523,0.410812 1.92853,1.032919 C 18.499775,14.409812 18.95556,13.999 19.906214,13.999 m 0,0.918482 c -0.546071,0 -0.773921,0.167345 -1.224927,0.704798 l -0.703433,0.838435 -0.703774,-0.83835 c -0.451006,-0.537538 -0.678855,-0.704883 -1.224926,-0.704883 -0.08943,0 -0.187315,0.0051 -0.291085,0.01528 -0.379664,0.03712 -0.970537,0.441363 -1.060482,1.402257 v 0.401937 c 0.111791,1.206665 1.214345,2.593988 3.280097,4.129541 2.065922,-1.535638 3.168561,-2.923047 3.280267,-4.129541 v -0.401852 c -0.09029,-0.960809 -0.680989,-1.36522 -1.060823,-1.402342 -0.103599,-0.01016 -0.201481,-0.01528 -0.290914,-0.01528 z"
     fill="#ffffff"
     id="path847"
     style="stroke-width:0.085337" />
  <path
     d="m 18.000042,17.408212 c 0.312504,-0.279137 0.542658,-0.481301 0.690632,-0.606234 0.147804,-0.125019 0.297826,-0.235359 0.449982,-0.331278 0.151985,-0.09583 0.321806,-0.185352 0.509376,-0.268726 0.300045,-0.133297 0.597871,-0.190643 0.893734,-0.171869 0.295864,0.01877 0.568857,0.104197 0.818894,0.256267 0.250037,0.152156 0.45203,0.346895 0.606234,0.584388 0.154204,0.237492 0.243808,0.493759 0.268811,0.7688 0.03337,0.325049 -0.02816,0.646855 -0.184328,0.965673 -0.156337,0.318649 -0.385552,0.575001 -0.68756,0.768716 -0.302178,0.1938 -0.638661,0.271969 -1.009536,0.234421 -0.291682,-0.0291 -0.570819,-0.100954 -0.837497,-0.215562 -0.266678,-0.114607 -0.493674,-0.241674 -0.68116,-0.381371 -0.187485,-0.139526 -0.36985,-0.297826 -0.546839,-0.474985 -0.17716,-0.176989 -0.274102,-0.271884 -0.290658,-0.284343 -0.100015,0.100015 -0.217865,0.216671 -0.353209,0.350052 -0.135516,0.133382 -0.29484,0.269836 -0.478229,0.409362 -0.183304,0.139696 -0.408337,0.266763 -0.675015,0.381371 -0.266678,0.114693 -0.549997,0.186546 -0.849956,0.215561 -0.37096,0.03746 -0.707359,-0.04062 -1.009451,-0.234421 -0.302179,-0.193715 -0.531308,-0.449982 -0.68756,-0.768715 -0.156252,-0.318819 -0.21778,-0.64071 -0.184414,-0.965673 0.0291,-0.279138 0.120838,-0.537538 0.275041,-0.775031 0.154119,-0.237492 0.356282,-0.431293 0.606234,-0.581315 0.249952,-0.150023 0.52286,-0.234421 0.818809,-0.25311 0.295777,-0.01877 0.591641,0.03857 0.887589,0.171869 0.187486,0.08346 0.357221,0.172978 0.509377,0.268726 0.151985,0.09592 0.302007,0.20626 0.449982,0.331278 0.147803,0.124848 0.378128,0.327012 0.690717,0.606149 z m -0.418919,0.418748 c -0.366693,-0.312504 -0.661532,-0.545815 -0.884347,-0.700019 -0.222986,-0.154118 -0.436499,-0.266593 -0.640625,-0.337508 -0.254219,-0.09157 -0.484373,-0.117679 -0.690632,-0.07817 -0.206259,0.03968 -0.38231,0.12408 -0.52815,0.253109 -0.145927,0.1292 -0.254219,0.278113 -0.325049,0.44691 -0.07092,0.168796 -0.106245,0.330339 -0.106245,0.484373 0.0041,0.233396 0.08124,0.444861 0.231264,0.63448 0.150022,0.189704 0.339555,0.324024 0.568771,0.403132 0.229129,0.07928 0.456296,0.09174 0.681245,0.03746 0.337593,-0.07911 0.595908,-0.184413 0.775115,-0.315576 0.178952,-0.131334 0.485312,-0.407314 0.918653,-0.828196 z m 0.843897,0 c 0.283319,0.279223 0.502037,0.486506 0.656156,0.621851 0.154204,0.135515 0.30636,0.242869 0.456382,0.321891 0.150023,0.07928 0.341519,0.145926 0.575001,0.20003 0.229044,0.05427 0.458345,0.04173 0.68756,-0.03746 0.229044,-0.07911 0.418663,-0.213428 0.568685,-0.403132 0.150023,-0.189619 0.227167,-0.400998 0.231349,-0.63448 0.0084,-0.204126 -0.05316,-0.417725 -0.184328,-0.640625 -0.131334,-0.222815 -0.323001,-0.385382 -0.575001,-0.48753 -0.25217,-0.102063 -0.551191,-0.09472 -0.897062,0.02185 -0.208307,0.07501 -0.422845,0.190643 -0.643697,0.346895 -0.221022,0.156337 -0.512533,0.386576 -0.875045,0.690717 z"
     fill="#ffed00"
     id="path853"
     style="stroke-width:0.085337" />
</svg>
