<svg
   viewBox="0 0 36 36"
   version="1.1"
   xmlns="http://www.w3.org/2000/svg"
   xmlns:svg="http://www.w3.org/2000/svg">
  <defs
     id="defs1" />
  <path
     id="rect3"
     style="fill:#000000;fill-opacity:1"
     d="M 4,5 C 2.984001,5 2.0595149,5.38186 1.3535156,6.0058594 0.52451645,6.7388586 0,7.8070012 0,9 v 17.5 c 0,1.479999 0.53681335,2.682657 1.3828125,3.472656 l -0.029297,0.02148 C 2.0595149,30.61814 2.984001,31 4,31 h 28 c 2.208998,0 4,-1.791001 4,-4 V 18 9 C 36,6.7910012 34.208998,5 32,5 Z" />
  <path
     id="rect830-6-6"
     style="display:inline;fill:#e52322;fill-opacity:1;stroke-width:4.46529;stroke-linecap:round;stroke-linejoin:round"
     d="M 4,5 C 2.984001,5 2.0595149,5.38186 1.3535156,6.0058594 0.52451645,6.7388586 0,7.8070012 0,9 V 22.332031 H 36 V 18 13.667969 9 C 36,6.7910012 34.208998,5 32,5 Z" />
  <path
     id="rect830-3"
     style="display:inline;fill:#204d9b;fill-opacity:1;stroke-width:3.15744;stroke-linecap:round;stroke-linejoin:round"
     d="M 4,5 C 2.9840004,5 2.0595156,5.3818594 1.3535156,6.0058594 0.52451562,6.7388584 0,7.807 0,9 v 4.666016 H 36 V 9 C 36,6.790999 34.209,5 32,5 Z" />
  <path
     d="M 18.663344,16.297296 H 17.51538 c -0.05639,0.665939 -0.111041,1.21178 -0.163966,1.637521 -0.05303,0.425741 -0.104323,0.79184 -0.154093,1.098297 -0.04977,0.306456 -0.101067,0.585635 -0.154094,0.837437 -0.04305,0.195517 -0.106053,0.348796 -0.1888,0.459735 -0.08285,0.110939 -0.205491,0.187986 -0.367727,0.23114 -0.132516,0.03308 -0.264218,0.0065 -0.395106,-0.07949 -0.130887,-0.08621 -0.209562,-0.1888 -0.236025,-0.308085 -0.01985,-0.08946 -0.02483,-0.16478 -0.01486,-0.226153 0.01,-0.06127 0.02809,-0.118369 0.05466,-0.171498 0.02646,-0.05303 0.05628,-0.100964 0.08946,-0.144118 0.03308,-0.04305 0.06789,-0.0861 0.104324,-0.12926 0.01,-0.01323 0.06707,-0.08112 0.171497,-0.203761 0.104324,-0.122542 0.182999,-0.234397 0.236026,-0.335463 0.05303,-0.101067 0.0861,-0.21282 0.09944,-0.335464 l 0.298212,-2.330737 H 16.4123 c -0.135875,0 -0.265033,0.03226 -0.387676,0.09689 -0.122644,0.06463 -0.216993,0.139946 -0.283251,0.226153 l -0.213736,0.318059 h -0.17394 c 0.04641,-0.129259 0.104324,-0.284065 0.17394,-0.464621 0.06962,-0.180555 0.165595,-0.35531 0.288238,-0.524263 0.09608,-0.142389 0.225237,-0.265847 0.387676,-0.370272 0.162338,-0.104323 0.351138,-0.156536 0.566502,-0.156536 h 3.796863 v 0.874688 h -1.282313 c -0.08285,0.791841 -0.124272,1.588668 -0.124272,2.39038 0,0.14585 0.02483,0.288238 0.0745,0.42737 0.04967,0.139132 0.110939,0.245186 0.183915,0.318059 0.09272,0.08621 0.206204,0.141677 0.34045,0.166511 0.134247,0.02483 0.270834,-0.01741 0.409966,-0.126715 0.07613,-0.05964 0.131702,-0.127529 0.16651,-0.203762 0.03481,-0.07613 0.0572,-0.149106 0.06707,-0.218621 0.0099,-0.06951 0.01985,-0.139132 0.02982,-0.208748 h 0.213735 c -0.0034,0.275006 -0.04468,0.522634 -0.124272,0.742986 -0.07959,0.220351 -0.17394,0.397548 -0.283251,0.531795 -0.10931,0.134246 -0.217094,0.23114 -0.323046,0.29068 -0.119285,0.07287 -0.258417,0.116741 -0.417497,0.131702 -0.159081,0.01496 -0.304828,-0.02239 -0.437344,-0.111855 -0.218621,-0.158978 -0.384317,-0.409151 -0.496987,-0.750416 -0.063,-0.198774 -0.09862,-0.461364 -0.106867,-0.787667 -0.0082,-0.326303 0.0024,-0.645177 0.03226,-0.95662 z"
     fill="#ffed00"
     id="path848"
     style="display:inline;stroke-width:0.101779" />
</svg>
