<svg
   viewBox="0 0 36 36"
   version="1.1"
   xmlns="http://www.w3.org/2000/svg"
   xmlns:svg="http://www.w3.org/2000/svg">
  <defs
     id="defs1" />
  <path
     id="rect13"
     style="fill:#732982;fill-opacity:1;stroke-width:2.34841"
     d="M 4,5 C 2.984001,5 2.0595149,5.38186 1.3535156,6.0058594 0.52451645,6.7388586 0,7.8070012 0,9 v 17.5 c 0,1.479999 0.53681335,2.682657 1.3828125,3.472656 l -0.029297,0.02148 C 2.0595149,30.618141 2.984001,31 4,31 h 28 c 2.208998,0 4,-1.791001 4,-4 V 18 9 C 36,6.7910017 34.208998,5 32,5 Z" />
  <path
     id="rect12"
     style="fill:#24408e;fill-opacity:1;stroke-width:2.1438"
     d="M 4,5 C 2.984001,5 2.0595149,5.38186 1.3535156,6.0058594 0.52451645,6.7388586 0,7.8070012 0,9 v 17.5 c 0,0.05677 0.00624572,0.11007 0.0078125,0.166016 H 36 V 18 9 C 36,6.7910017 34.208998,5 32,5 Z" />
  <path
     id="rect11"
     style="fill:#008026;fill-opacity:1;stroke-width:1.91747"
     d="M 4,5 C 2.984001,5 2.0595149,5.38186 1.3535156,6.0058594 0.52451645,6.7388586 0,7.8070012 0,9 V 22.333984 H 36 V 18 9 C 36,6.7910017 34.208998,5 32,5 Z" />
  <path
     id="rect10"
     style="fill:#ffed00;fill-opacity:1;stroke-width:1.66058"
     d="M 4,5 C 2.984001,5 2.0595149,5.38186 1.3535156,6.0058594 0.52451645,6.7388586 0,7.8070012 0,9 v 9 H 36 V 9 C 36,6.7910017 34.208998,5 32,5 Z" />
  <path
     id="rect6"
     style="fill:#ff8c00;fill-opacity:1;stroke-width:1.35586"
     d="M 4,5 C 2.984001,5 2.0595149,5.38186 1.3535156,6.0058594 0.52451645,6.7388586 0,7.8070012 0,9 v 4.666016 H 36 V 9 C 36,6.7910017 34.208998,5 32,5 Z" />
  <path
     id="rect1"
     style="fill:#e40303;fill-opacity:1;stroke-width:0.958735"
     d="M 4,5 C 2.984001,5 2.0595149,5.38186 1.3535156,6.0058594 0.52451645,6.7388586 0,7.8070012 0,9 V 9.3339844 H 36 V 9 C 36,6.7910017 34.208998,5 32,5 Z" />
  <path
     id="path17"
     style="fill:#000000;fill-opacity:1"
     d="M 4,5 C 2.984001,5 2.0595149,5.38186 1.3535156,6.0058594 0.52451645,6.7388586 0,7.8070012 0,9 v 9 8.5 c 0,1.479999 0.53681335,2.682657 1.3828125,3.472656 l -0.029297,0.02148 C 2.0595149,30.618141 2.984001,31 4,31 H 4.1835938 L 17.183594,18 4.1835938,5 Z" />
  <path
     id="path18"
     style="fill:#613915;fill-opacity:1"
     d="M 1.9023438,5.5976562 C 1.7077457,5.7183042 1.524332,5.8548829 1.3535156,6.0058594 0.52451645,6.7388586 0,7.8070012 0,9 v 9 8.5 c 0,1.479999 0.53681335,2.682657 1.3828125,3.472656 l -0.029297,0.02148 c 0.1708164,0.150976 0.3542301,0.287555 0.5488282,0.408203 L 14.304688,18 Z" />
  <path
     id="path19"
     style="fill:#74d7ee;fill-opacity:1"
     d="M 0.51757812,7.0449219 C 0.19074961,7.6232408 0,8.2880586 0,9 v 9 8.5 c 0,0.919805 0.20831332,1.731222 0.56835938,2.404297 L 11.472656,18 Z" />
  <path
     id="path20"
     style="fill:#ffafc8;fill-opacity:1"
     d="M 0,9.4804688 V 18 26.519531 L 8.5195312,18 Z" />
  <path
     id="path21"
     style="fill:#ffffff;fill-opacity:1"
     d="M 0,12.300781 V 18 23.699219 L 5.6992188,18 Z" />
</svg>
