<?xml version="1.0" encoding="UTF-8" standalone="no"?>
<svg
   viewBox="0 0 36 36"
   version="1.1"
   xmlns="http://www.w3.org/2000/svg"
   xmlns:svg="http://www.w3.org/2000/svg">
  <defs
     id="defs1" />
  <path
     id="rect841"
     style="fill:#ffffff;fill-opacity:1;stroke-width:22.5963;stroke-linecap:round;stroke-linejoin:round"
     d="m 4.0000015,5.0000035 c -1.016,0 -1.940485,0.38186 -2.646485,1.00586 -0.829,0.733 -1.353515,1.8011405 -1.353515,2.9941405 v 17.5 c 0,1.48 0.536812,2.682656 1.382812,3.472656 l -0.0293,0.02148 C 2.0595135,30.618141 2.9839985,31 3.9999985,31 H 31.999999 c 2.209,0 4,-1.790999 4,-4 V 18 9 c 0,-2.2090005 -1.791,-4.0000005 -4,-4.0000005 z" />
  <path
       id="rect1"
       style="fill:#000000;stroke-width:0.683351"
       d="M 4,5 C 2.984001,5 2.0595149,5.38186 1.3535156,6.0058594 0.52451645,6.7388586 0,7.8070012 0,9 V 9.3339844 H 36 V 9 C 36,6.7910017 34.208998,5 32,5 Z" />
    <path
       id="rect2"
       style="fill:#000000;stroke-width:0.683351"
       d="M 0,13.666016 V 18 h 36 v -4.333984 z" />
    <path
       id="rect4"
       style="fill:#000000;stroke-width:0.683351"
       d="M 0,22.333984 V 26.5 c 0,0.05677 0.00624572,0.11007 0.0078125,0.166016 H 36 v -4.332032 z" />
    <path
       id="rect9"
       style="fill:#750787;stroke-width:0.683351"
       d="m 3,26.666016 -2,2.888672 c 0.1197293,0.148853 0.2459306,0.290147 0.3828125,0.417968 l -0.029297,0.02148 C 2.0595149,30.618141 2.984001,31 4,31 h 8.996094 l 2.501953,-4.333984 -5.6280333,-1.735738 z m 17.501953,0 L 23.003906,31 H 32 c 1.214144,0 2.299593,-0.542345 3.033203,-1.396484 L 33,26.666016 26.218311,24.930278 Z" />
    <path
       id="rect8"
       style="display:inline;fill:#004dff;fill-opacity:1;stroke:none;stroke-width:0.683351"
       d="M 6,22.333984 3,26.666016 H 15.498047 L 18,22.333984 12.610246,20.166992 Z m 12,0 2.501953,4.332032 H 33 l -3,-4.332032 -6.408279,-2.166992 z" />
    <path
       id="rect7"
       style="display:inline;fill:#008026;fill-opacity:1;stroke:none;stroke-width:0.683351"
       d="M 9,18 6,22.333984 H 18 30 L 27,18 18,15.833008 Z" />
    <path
       id="rect6"
       style="display:inline;fill:#ffed00;fill-opacity:1;stroke:none;stroke-width:0.683351"
       d="M 12,13.666016 9,18 H 27 L 24,13.666016 18,11.5 Z" />
    <path
       id="rect4-7-6"
       style="display:inline;fill:#ff8c00;fill-opacity:1;stroke:none;stroke-width:0.683351"
       d="M 15,9.3339844 12,13.666016 H 24 L 21,9.3339844 18,7.166992 Z" />
    <path
       id="rect4-7"
       style="display:inline;fill:#e40303;fill-opacity:1;stroke:none;stroke-width:0.683351"
       d="m 18,5 -3,4.3339844 h 6 z" />
</svg>
