<svg viewBox="0 0 36 36" version="1.1" xmlns="http://www.w3.org/2000/svg" xmlns:svg="http://www.w3.org/2000/svg">
   <path fill="#5bcefa" d="M 4 5 C 2.984 5 2.0595156 5.3818594 1.3535156 6.0058594 C 0.52451562 6.7388594 1.4802974e-16 7.807 0 9 L 0 26.5 C 0 27.98 0.5368125 29.182656 1.3828125 29.972656 L 1.3535156 29.994141 C 2.0595156 30.618142 2.984 31 4 31 L 32 31 C 34.209 31 36 29.209001 36 27 L 36 18 L 36 9 C 36 6.7909995 34.209 5 32 5 L 4 5 z " />
   <path fill="#f5a9b8" d="M 0,10.200001 H 36 V 25.8 H 0 Z" />
   <path fill="#ffffff" d="M 0,15.400001 H 36 V 20.6 H 0 Z" />
</svg>