<svg viewBox="0 0 36 36" version="1.1" xmlns="http://www.w3.org/2000/svg">
   <path fill="#000000" d="M 3.464844,5 C 2.662422,5.1091331 1.932249,5.4435631 1.353516,5.9550781 0.524517,6.6880771 0,7.7562191 0,8.9492191 V 26.449219 c 0,1.48 0.536812,2.682656 1.382812,3.472656 l -0.0293,0.02148 c 0.580127,0.512747 1.312463,0.848793 2.117188,0.957032 h 29.021485 c 1.974241,-0.244983 3.507812,-1.910649 3.507812,-3.951168 v -9 -8.9999999 c 0,-2.0378462 -1.529514,-3.7007904 -3.5,-3.9492191 z" />
   <path fill="#bcc4c6" d="m 0.027344,8.6992191 c -0.0054,0.0846 -0.02734,0.164027 -0.02734,0.25 V 26.449219 c 0,0.259571 0.02289,0.508221 0.05469,0.75 h 35.919922 c 0.0053,-0.08424 0.02539,-0.164423 0.02539,-0.25 v -9 -8.9999999 c 0,-0.08578 -0.02007,-0.165558 -0.02539,-0.25 z" />
   <path fill="#ffffff" d="M 0,12.400391 V 23.5 h 36 v -5.550781 -5.548828 z" />
   <path fill="#b6f583" d="m 0,16.099609 v 3.701172 h 36 v -1.851562 -1.84961 z" />
</svg>