<svg
   xmlns="http://www.w3.org/2000/svg"
   viewBox="0 0 36 36"
   version="1.1">
  <path
     id="rect832"
     style="fill:#d50071;fill-opacity:1;stroke-width:13.4668;stroke-linecap:round;stroke-linejoin:round"
     d="M 4 5 C 2.984 5 2.0595156 5.3818594 1.3535156 6.0058594 C 0.52451562 6.7388594 1.4802974e-16 7.807 0 9 L 0 15.574219 L 36 15.574219 L 36 9 C 36 6.7909995 34.209 5 32 5 L 4 5 z " />
  <path
     id="rect838"
     style="fill:#755299;fill-opacity:1;stroke-width:9.11767;stroke-linecap:round;stroke-linejoin:round"
     d="M 0 15.574219 L 0 20.421875 L 36 20.421875 L 36 18 L 36 15.574219 L 0 15.574219 z " />
  <path
     id="rect840"
     style="fill:#144391;fill-opacity:1;stroke-width:13.4668;stroke-linecap:round;stroke-linejoin:round"
     d="M 0 20.421875 L 0 26.5 C 0 27.98 0.5368125 29.182656 1.3828125 29.972656 L 1.3535156 29.994141 C 2.0544083 30.613627 2.9711867 30.992569 3.9785156 30.998047 L 32.019531 30.998047 C 34.219312 30.987253 36 29.202316 36 27 L 36 20.421875 L 0 20.421875 z " />
</svg>
