<svg
   xmlns="http://www.w3.org/2000/svg"
   viewBox="0 0 36 36"
   version="1.1">
  <path
     id="rect830"
     style="fill:#7e7f7f;fill-opacity:1;stroke-width:32.7539;stroke-linecap:round;stroke-linejoin:round"
     d="M 3.4648438 5 C 2.6624225 5.1091331 1.9322488 5.4435631 1.3535156 5.9550781 C 0.52451658 6.6880771 2.9605947e-16 7.7562187 0 8.9492188 L 0 26.449219 C 0 27.929219 0.53681245 29.131875 1.3828125 29.921875 L 1.3535156 29.943359 C 1.9336424 30.456106 2.6659784 30.792152 3.4707031 30.900391 L 32.492188 30.900391 C 34.466429 30.655404 36 28.989738 36 26.949219 L 36 17.949219 L 36 8.9492188 C 36 6.9113729 34.470486 5.2484287 32.5 5 L 3.4648438 5 z " />
  <path
     id="rect830-6"
     style="fill:#c5c3c4;fill-opacity:1;stroke-width:27.682;stroke-linecap:round;stroke-linejoin:round"
     d="M 0.02734375 8.6992188 C 0.021978193 8.7838159 2.1335327e-17 8.863246 0 8.9492188 L 0 26.449219 C 0 26.70879 0.022890533 26.95744 0.0546875 27.199219 L 35.974609 27.199219 C 35.979905 27.114976 36 27.034796 36 26.949219 L 36 17.949219 L 36 8.9492188 C 36 8.8634356 35.979931 8.7836608 35.974609 8.6992188 L 0.02734375 8.6992188 z " />
  <path
     id="rect830-6-7"
     style="fill:#f4aec9;fill-opacity:1;stroke-width:21.4424;stroke-linecap:round;stroke-linejoin:round"
     d="M 0 12.400391 L 0 23.5 L 36 23.5 L 36 17.949219 L 36 12.400391 L 0 12.400391 z " />
  <path
     id="rect830-6-7-5"
     style="fill:#ffffff;fill-opacity:1;stroke-width:12.3798;stroke-linecap:round;stroke-linejoin:round"
     d="M 0 16.099609 L 0 19.800781 L 36 19.800781 L 36 17.949219 L 36 16.099609 L 0 16.099609 z " />
</svg>
