<svg
   xmlns="http://www.w3.org/2000/svg"
   viewBox="0 0 36 36"
   version="1.1">
  <path
     id="rect830"
     style="fill:#ee75a1;fill-opacity:1;stroke-width:13.9231;stroke-linecap:round;stroke-linejoin:round"
     d="M 4 5 C 2.984 5 2.0595156 5.3818594 1.3535156 6.0058594 C 0.52451557 6.7388594 2.9605947e-16 7.807 0 9 L 0 10.199219 L 36 10.199219 L 36 9 C 36 6.791 34.209 5 32 5 L 4 5 z " />
  <path
     id="rect830-3"
     style="fill:#ffffff;fill-opacity:1;stroke-width:13.9231;stroke-linecap:round;stroke-linejoin:round"
     d="M 0 10.199219 L 0 15.400391 L 36 15.400391 L 36 10.199219 L 0 10.199219 z " />
  <path
     id="rect830-6"
     style="fill:#8a4493;fill-opacity:1;stroke-width:13.9231;stroke-linecap:round;stroke-linejoin:round"
     d="M 0 15.400391 L 0 20.599609 L 36 20.599609 L 36 18 L 36 15.400391 L 0 15.400391 z " />
  <path
     id="rect830-7"
     style="fill:#000000;stroke-width:13.9231;stroke-linecap:round;stroke-linejoin:round"
     d="M 0 20.599609 L 0 25.800781 L 36 25.800781 L 36 20.599609 L 0 20.599609 z " />
  <path
     id="rect830-5"
     style="fill:#374a99;fill-opacity:1;stroke-width:13.9231;stroke-linecap:round;stroke-linejoin:round"
     d="M 0 25.800781 L 0 26.5 C 0 27.98 0.53681244 29.182656 1.3828125 29.972656 L 1.3535156 29.994141 C 2.0595156 30.618142 2.984 31 4 31 L 32 31 C 34.209 31 36 29.209001 36 27 L 36 25.800781 L 0 25.800781 z " />
</svg>
