<svg viewBox="0 0 36 36" version="1.1" xmlns="http://www.w3.org/2000/svg">
   <path fill="#3e4095" d="m 4.0000005,5 c -2.209,0 -4,1.790999 -4,4 v 9 9 c 0,2.209001 1.791,4 4,4 H 32 c 2.209,0 4,-1.790999 4,-4 V 18 9 C 36,6.790999 34.209,5 32,5 Z" />
   <path fill="#ffffff" d="M 1.95e-7,13.666016 V 18 27 c 0,2.209001 1.791000005,4 4.000000005,4 H 32 c 2.209,0 4,-1.790999 4,-4 V 13.666016 Z" />
   <path fill="#ec268f" d="M 9.7499999e-8,22.333985 V 27 C 9.7499999e-8,29.209001 1.7910001,31 4.0000001,31 H 32 c 2.209,0 4,-1.790999 4,-4 v -4.666015 z" />
</svg>