<svg
   xmlns="http://www.w3.org/2000/svg"
   viewBox="0 0 36 36"
   version="1.1">
  <path
     id="rect830"
     style="fill:#ffed00;fill-opacity:1;stroke-width:2.6111;stroke-linecap:round;stroke-linejoin:round"
     d="M 4 5 C 2.984 5 2.0595156 5.3818594 1.3535156 6.0058594 C 0.52451563 6.7388594 0 7.807 0 9 L 0 11.5 L 36 11.5 L 36 9 C 36 6.790999 34.209 5 32 5 L 4 5 z " />
  <path
     id="rect830-3"
     style="fill:#ffffff;fill-opacity:1;stroke-width:2.6111;stroke-linecap:round;stroke-linejoin:round"
     d="M 0 11.5 L 0 18 L 36 18 L 36 11.5 L 0 11.5 z " />
  <path
     id="rect830-6"
     style="fill:#7f5ca3;fill-opacity:1;stroke-width:2.6111;stroke-linecap:round;stroke-linejoin:round"
     d="M 0 18 L 0 24.5 L 36 24.5 L 36 18 L 0 18 z " />
  <path
     id="rect830-7"
     style="fill:#000000;stroke-width:2.6111;stroke-linecap:round;stroke-linejoin:round"
     d="M 0 24.5 L 0 26.5 C 0 27.98 0.5368125 29.182656 1.3828125 29.972656 L 1.3535156 29.994141 C 2.0595156 30.618142 2.984 31 4 31 L 32 31 C 34.209 31 36 29.209001 36 27 L 36 24.5 L 0 24.5 z " />
</svg>
