<svg
   xmlns="http://www.w3.org/2000/svg"
   viewBox="0 0 36 36"
   version="1.1">
  <path
     id="rect830"
     style="fill:#204d9b;fill-opacity:1;stroke-width:3.15744;stroke-linecap:round;stroke-linejoin:round"
     d="M 4,5 C 2.9840004,5 2.0595156,5.3818594 1.3535156,6.0058594 0.52451562,6.7388584 0,7.807 0,9 v 4.666016 H 36 V 9 C 36,6.790999 34.209,5 32,5 Z" />
  <path
     id="rect830-6"
     style="fill:#e52322;fill-opacity:1;stroke-width:3.15744;stroke-linecap:round;stroke-linejoin:round"
     d="m 0,13.666016 v 8.666015 H 36 V 18 13.666016 Z" />
  <path
     id="rect830-7"
     style="fill:#000000;fill-opacity:1;stroke-width:3.15744;stroke-linecap:round;stroke-linejoin:round"
     d="M 0,22.332031 V 26.5 c 0,1.48 0.5368125,2.682656 1.3828125,3.472656 l -0.029297,0.02148 c 0.7008927,0.619486 1.6176715,0.998428 2.625,1.003906 H 32.019531 C 34.219312,30.987253 36,29.202316 36,27 v -4.667969 z" />
  <g
     id="g919"
     transform="matrix(0.61026339,0,0,0.61026339,42.031479,8.2253307)">
    <g
       id="Ebene_4-3"
       transform="matrix(0.1398363,0,0,0.1398363,-68.802169,-4.7830581)">
      <g
         id="Favorit">
        <g
           id="g849">
          <path
             d="m 232.75,101.862 c 1.391,0 2.872,0.075 4.456,0.23 9.64,0.941 20.787,9.767 22.147,26.68 v 5.629 c -1.264,16.188 -13.486,36.155 -49.202,61.207 -35.716,-25.052 -47.936,-45.02 -49.2,-61.207 v -5.629 c 1.357,-16.913 12.504,-25.739 22.144,-26.68 1.584,-0.155 3.066,-0.23 4.457,-0.23 11.139,0 16.482,4.814 22.599,12.104 6.118,-7.29 11.459,-12.104 22.599,-12.104 m 0,10.763 c -6.399,0 -9.069,1.961 -14.354,8.259 l -8.243,9.825 -8.247,-9.824 c -5.285,-6.299 -7.955,-8.26 -14.354,-8.26 -1.048,0 -2.195,0.06 -3.411,0.179 -4.449,0.435 -11.373,5.172 -12.427,16.432 v 4.71 c 1.31,14.14 14.23,30.397 38.437,48.391 24.209,-17.995 37.13,-34.253 38.439,-48.391 v -4.709 c -1.058,-11.259 -7.98,-15.998 -12.431,-16.433 -1.214,-0.119 -2.361,-0.179 -3.409,-0.179 z"
             fill="#ffffff"
             id="path847" />
        </g>
      </g>
    </g>
    <g
       id="Ebene_6"
       transform="matrix(0.1398363,0,0,0.1398363,-68.802169,-4.7830581)">
      <g
         id="g855">
        <path
           d="m 210.413,141.812 c 3.662,-3.271 6.359,-5.64 8.093,-7.104 1.732,-1.465 3.49,-2.758 5.273,-3.882 1.781,-1.123 3.771,-2.172 5.969,-3.149 3.516,-1.562 7.006,-2.234 10.473,-2.014 3.467,0.22 6.666,1.221 9.596,3.003 2.93,1.783 5.297,4.065 7.104,6.848 1.807,2.783 2.857,5.786 3.15,9.009 0.391,3.809 -0.33,7.58 -2.16,11.316 -1.832,3.734 -4.518,6.738 -8.057,9.008 -3.541,2.271 -7.484,3.187 -11.83,2.747 -3.418,-0.341 -6.689,-1.183 -9.814,-2.526 -3.125,-1.343 -5.785,-2.832 -7.982,-4.469 -2.197,-1.635 -4.334,-3.49 -6.408,-5.566 -2.076,-2.074 -3.212,-3.186 -3.406,-3.332 -1.172,1.172 -2.553,2.539 -4.139,4.102 -1.588,1.563 -3.455,3.162 -5.604,4.797 -2.148,1.637 -4.785,3.126 -7.91,4.469 -3.125,1.344 -6.445,2.186 -9.96,2.526 -4.347,0.439 -8.289,-0.476 -11.829,-2.747 -3.541,-2.27 -6.226,-5.273 -8.057,-9.008 -1.831,-3.736 -2.552,-7.508 -2.161,-11.316 0.341,-3.271 1.416,-6.299 3.223,-9.082 1.806,-2.783 4.175,-5.054 7.104,-6.812 2.929,-1.758 6.127,-2.747 9.595,-2.966 3.466,-0.22 6.933,0.452 10.401,2.014 2.197,0.978 4.186,2.027 5.969,3.149 1.781,1.124 3.539,2.417 5.273,3.882 1.732,1.463 4.431,3.832 8.094,7.103 z m -4.909,4.907 c -4.297,-3.662 -7.752,-6.396 -10.363,-8.203 -2.613,-1.806 -5.115,-3.124 -7.507,-3.955 -2.979,-1.073 -5.676,-1.379 -8.093,-0.916 -2.417,0.465 -4.48,1.454 -6.189,2.966 -1.71,1.514 -2.979,3.259 -3.809,5.237 -0.831,1.978 -1.245,3.871 -1.245,5.676 0.048,2.735 0.952,5.213 2.71,7.435 1.758,2.223 3.979,3.797 6.665,4.724 2.685,0.929 5.347,1.075 7.983,0.439 3.956,-0.927 6.983,-2.161 9.083,-3.698 2.097,-1.539 5.687,-4.773 10.765,-9.705 z m 9.889,0 c 3.32,3.272 5.883,5.701 7.689,7.287 1.807,1.588 3.59,2.846 5.348,3.772 1.758,0.929 4.002,1.71 6.738,2.344 2.684,0.636 5.371,0.489 8.057,-0.439 2.684,-0.927 4.906,-2.501 6.664,-4.724 1.758,-2.222 2.662,-4.699 2.711,-7.435 0.098,-2.392 -0.623,-4.895 -2.16,-7.507 -1.539,-2.611 -3.785,-4.516 -6.738,-5.713 -2.955,-1.196 -6.459,-1.11 -10.512,0.256 -2.441,0.879 -4.955,2.234 -7.543,4.065 -2.59,1.832 -6.006,4.53 -10.254,8.094 z"
           fill="#ffed00"
           id="path853" />
      </g>
    </g>
  </g>
</svg>
