<svg
   xmlns="http://www.w3.org/2000/svg"
   viewBox="0 0 36 36"
   version="1.1">
  <g
     id="Ebene_4"
     transform="matrix(0.10177893,0,0,0.10177893,-3.4222763,2.8205442)">
    <g
       id="g850">
      <path
         d="m 216.996,132.412 h -11.279 c -0.554,6.543 -1.091,11.906 -1.611,16.089 -0.521,4.183 -1.025,7.78 -1.514,10.791 -0.489,3.011 -0.993,5.754 -1.514,8.228 -0.423,1.921 -1.042,3.427 -1.855,4.517 -0.814,1.09 -2.019,1.847 -3.613,2.271 -1.302,0.325 -2.596,0.064 -3.882,-0.781 -1.286,-0.847 -2.059,-1.855 -2.319,-3.027 -0.195,-0.879 -0.244,-1.619 -0.146,-2.222 0.098,-0.602 0.276,-1.163 0.537,-1.685 0.26,-0.521 0.553,-0.992 0.879,-1.416 0.325,-0.423 0.667,-0.846 1.025,-1.27 0.098,-0.13 0.659,-0.797 1.685,-2.002 1.025,-1.204 1.798,-2.303 2.319,-3.296 0.521,-0.993 0.846,-2.091 0.977,-3.296 l 2.93,-22.9 h -4.736 c -1.335,0 -2.604,0.317 -3.809,0.952 -1.205,0.635 -2.132,1.375 -2.783,2.222 l -2.1,3.125 h -1.709 c 0.456,-1.27 1.025,-2.791 1.709,-4.565 0.684,-1.774 1.627,-3.491 2.832,-5.151 0.944,-1.399 2.213,-2.612 3.809,-3.638 1.595,-1.025 3.45,-1.538 5.566,-1.538 h 37.305 v 8.594 H 223.1 c -0.814,7.78 -1.221,15.609 -1.221,23.486 0,1.433 0.244,2.832 0.732,4.199 0.488,1.367 1.09,2.409 1.807,3.125 0.911,0.847 2.026,1.392 3.345,1.636 1.319,0.244 2.661,-0.171 4.028,-1.245 0.748,-0.586 1.294,-1.253 1.636,-2.002 0.342,-0.748 0.562,-1.465 0.659,-2.148 0.097,-0.683 0.195,-1.367 0.293,-2.051 h 2.1 c -0.033,2.702 -0.439,5.135 -1.221,7.3 -0.782,2.165 -1.709,3.906 -2.783,5.225 -1.074,1.319 -2.133,2.271 -3.174,2.856 -1.172,0.716 -2.539,1.147 -4.102,1.294 -1.563,0.147 -2.995,-0.22 -4.297,-1.099 -2.148,-1.562 -3.776,-4.02 -4.883,-7.373 -0.619,-1.953 -0.969,-4.533 -1.05,-7.739 -0.081,-3.206 0.024,-6.339 0.317,-9.399 z"
         fill="#ffed00"
         id="path848" />
    </g>
  </g>
  <path
     id="rect830-3"
     style="fill:#204d9b;fill-opacity:1;stroke-width:3.15744;stroke-linecap:round;stroke-linejoin:round"
     d="M 4,5 C 2.9840004,5 2.0595156,5.3818594 1.3535156,6.0058594 0.52451562,6.7388584 0,7.807 0,9 v 4.666016 H 36 V 9 C 36,6.790999 34.209,5 32,5 Z" />
  <path
     id="rect830-6-6"
     style="fill:#e52322;fill-opacity:1;stroke-width:3.15744;stroke-linecap:round;stroke-linejoin:round"
     d="m 0,13.666016 v 8.666015 H 36 V 18 13.666016 Z" />
  <path
     id="rect830-7-7"
     style="fill:#000000;fill-opacity:1;stroke-width:3.15744;stroke-linecap:round;stroke-linejoin:round"
     d="M 0,22.332031 V 26.5 c 0,1.48 0.5368125,2.682656 1.3828125,3.472656 l -0.029297,0.02148 c 0.7008927,0.619486 1.6176715,0.998428 2.625,1.003906 H 32.019531 C 34.219312,30.987253 36,29.202316 36,27 v -4.667969 z" />
</svg>